<svg id="piece" xmlns="http://www.w3.org/2000/svg"><g transform="translate(-100 -100)"><g><path d="M200,100A100,100,0,1,1,100,0,100,100,0,0,1,200,100Z" fill="#fedaa4" stroke="#000" stroke-linecap="round" stroke-linejoin="bevel" stroke-width="6.15"/><path d="M189.57,100A89.57,89.57,0,1,1,100,10.43,89.57,89.57,0,0,1,189.57,100Z" fill="none" stroke="#000" stroke-linecap="round" stroke-linejoin="bevel" stroke-width="6.87"/></g><g><path d="M101.81,123.5c-8.89,0-16.09-6.86-16.09-15.32s7.2-15.33,16.09-15.33,16.08,6.86,16.08,15.33S110.69,123.5,101.81,123.5Z" fill="none" stroke="#000" stroke-linecap="round" stroke-linejoin="round" stroke-width="3.73"/><path d="M101.81,133.5c-14.69,0-26.59-11.34-26.59-25.32s11.9-25.33,26.59-25.33,26.58,11.34,26.58,25.33S116.49,133.5,101.81,133.5Z" fill="none" stroke="#000" stroke-linecap="round" stroke-linejoin="round" stroke-width="3.73"/><path d="M127.74,111c7.55.52,27.24-1.46,43-2.81l.32-16.58c-38-14-73.83-28.52-94.53-24.39s-28.79,25.72-12.8,39.4l-14.44,9.7H29.92l-1,11.25,22.64-.31,23.31-14.38" fill="none" stroke="#000" stroke-width="3.73"/></g></g></svg>