<svg id="piece" xmlns="http://www.w3.org/2000/svg"><g transform="translate(-100 -100)"><g><path d="M200,100A100,100,0,1,1,100,0,100,100,0,0,1,200,100Z" fill="#fedaa4" stroke="#000" stroke-linecap="round" stroke-linejoin="bevel" stroke-width="6.15"/><path d="M189.57,100A89.57,89.57,0,1,1,100,10.43,89.57,89.57,0,0,1,189.57,100Z" fill="none" stroke="#000" stroke-linecap="round" stroke-linejoin="bevel" stroke-width="6.87"/></g><g><path d="M92.55,54.35c-37,8.4-46,51.39-41.82,96.64l85.73.29c-3.85-14.14-5.58-22.37-15-38.69l28.76,6.67c6.38,3,19.67-2.2,13.82-16.38L132.51,71.8l5.05-13.75a119.81,119.81,0,0,0-26.65-5.42" fill="none" stroke="#000" stroke-width="3.69"/><path d="M129.9,91.5a3.37,3.37,0,1,1,4.32-2A3.38,3.38,0,0,1,129.9,91.5Z" fill="#a00" stroke="#000" stroke-width="5.52"/><path d="M110.6,73l2.91-38.44C100.23,39.82,89.23,55.7,87.34,71.29" fill="none" stroke="#000" stroke-linecap="round" stroke-linejoin="round" stroke-width="3.69"/></g></g></svg>