<svg id="piece" xmlns="http://www.w3.org/2000/svg"><g transform="translate(-100 -100)"><g><path d="M200,100A100,100,0,1,1,100,0,100,100,0,0,1,200,100Z" fill="#fedaa4" stroke="#000" stroke-linecap="round" stroke-linejoin="bevel" stroke-width="6.15"/><path d="M189.57,100A89.57,89.57,0,1,1,100,10.43,89.57,89.57,0,0,1,189.57,100Z" fill="none" stroke="#000" stroke-linecap="round" stroke-linejoin="bevel" stroke-width="6.87"/></g><g><g><path d="M90.71,79.21S78.45,66.5,55.77,71.14s-15.41,30.67-8.32,46.76S68.8,162.78,68.8,162.78L131,162.78M110.5,79.21S121.55,66.5,144.25,71.14s15.41,30.67,8.32,46.76S131.2,162.78,131.2,162.78" fill="none" stroke="#000" stroke-width="6" stroke-linecap="round"/><path d="M138,147.41,62.8,147" fill="none" stroke="#000" stroke-width="6"/><path d="M108.84,147.15l1.11-75.28" fill="none" stroke="#000" stroke-width="6"/><path d="M91.16,147.52l.29-75.85" fill="none" stroke="#000" stroke-width="6"/><path d="M107,47.52l12.41-2-.53,17.25L105.13,61l6.39,9.87-23.44-.54L94,59.05,78.78,61.43l1.35-15.37,13.29,2.49L90.18,37l20.7.23L107,47.52Z" fill="none" stroke="#000" stroke-linejoin="round" stroke-width="6"/></g></g></g></svg>