<svg id="piece" xmlns="http://www.w3.org/2000/svg"><g><g><path d="M200,100A100,100,0,1,1,100,0,100,100,0,0,1,200,100Z" fill="#fedaa4" stroke="#000" stroke-linecap="round" stroke-linejoin="bevel" stroke-width="6.15"/><path d="M189.57,100A89.57,89.57,0,1,1,100,10.43,89.57,89.57,0,0,1,189.57,100Z" fill="none" stroke="#c00" stroke-linecap="round" stroke-linejoin="bevel" stroke-width="6.87"/></g><g><path d="M102.88,120.81c5.28,6.37,7.28,17.51,5.11,27.69l-68.6-.73c-14-.15,4.26-37.67,4.26-37.67h0" fill="none" stroke="#c00" stroke-linejoin="round" stroke-width="3.85"/><path d="M84.5,97.39s-3.15,15.37-12.77,19.52-39.15-8.17-39.15-8.17S54.15,59.28,60.24,56.09,82,57.46,82,57.46c37.14-21.21,45.67,18.91,50.86,47l9.35,1.59L147.9,81.5l10.25.25c-5.48,35.13-17.36,72.78-42.59,36.52a47.31,47.31,0,0,1-14.38,1.62c-7-.52-16.68-22.5-16.68-22.5Z" fill="none" stroke="#c00" stroke-linejoin="round" stroke-width="3.85"/><path d="M106.59,118.35,167.42,110l-61.77-8.58.94,16.92Z" fill="none" stroke="#c00" stroke-linejoin="round" stroke-width="3.85"/><path d="M115.94,83.43a2.86,2.86,0,1,1,2.67-2.85A2.76,2.76,0,0,1,115.94,83.43Z" fill="#a00" stroke="#c00" stroke-linecap="round" stroke-linejoin="round" stroke-width="5.17"/></g></g></svg>