<svg id="piece" xmlns="http://www.w3.org/2000/svg"><g><g><path d="M200,100A100,100,0,1,1,100,0,100,100,0,0,1,200,100Z" fill="#fedaa4" stroke="#000" stroke-linecap="round" stroke-linejoin="bevel" stroke-width="6.15"/><path d="M189.57,100A89.57,89.57,0,1,1,100,10.43,89.57,89.57,0,0,1,189.57,100Z" fill="none" stroke="#c00" stroke-linecap="round" stroke-linejoin="bevel" stroke-width="6.87"/></g><g><path d="M71.92,83.52a31.73,31.73,0,0,0,3.43,42.12A48.88,48.88,0,0,0,52.2,159.1h95.6a48.88,48.88,0,0,0-23.15-33.46,31.47,31.47,0,0,0,3.58-41.37Z" fill="#fedaa4" stroke="#c00" stroke-linecap="round" stroke-linejoin="round" stroke-width="3.96"/><path d="M128.91,84,70,83.48,56.65,51.23l31,7L100.79,40.9l11.69,19,33.78-6.23Z" fill="#fedaa4" stroke="#c00" stroke-linejoin="round" stroke-width="3.96"/><path d="M116.85,97.59l-9.41,9.46h0" fill="#fedaa4" stroke="#c00" stroke-linecap="round" stroke-width="3.96"/><path d="M83,97.19l9.41,9.46h0" fill="#fedaa4" stroke="#c00" stroke-linecap="round" stroke-width="3.96"/></g></g></svg>