<svg id="piece" xmlns="http://www.w3.org/2000/svg"><g transform="translate(-100 -100)"><g><path d="M200,100A100,100,0,1,1,100,0,100,100,0,0,1,200,100Z" fill="#fedaa4" stroke="#000" stroke-linecap="round" stroke-linejoin="bevel" stroke-width="6.15"/><path d="M189.57,100A89.57,89.57,0,1,1,100,10.43,89.57,89.57,0,0,1,189.57,100Z" fill="none" stroke="#c00" stroke-linecap="round" stroke-linejoin="bevel" stroke-width="6.87"/></g><path d="M150.44,159.78A52.12,52.12,0,0,0,124,125.7a37.69,37.69,0,0,0-12-64.85,13.71,13.71,0,0,0,1.79-6.73,13.9,13.9,0,1,0-27.79,0A13.7,13.7,0,0,0,88,60.85,37.69,37.69,0,0,0,76,125.7a52.12,52.12,0,0,0-26.45,34.08Z" fill="none" stroke="#c00" stroke-linecap="round" stroke-linejoin="round" stroke-width="6.15"/></g></svg>