<svg id="piece" xmlns="http://www.w3.org/2000/svg"><g><g><path d="M200,100A100,100,0,1,1,100,0,100,100,0,0,1,200,100Z" fill="#fedaa4" stroke="#000" stroke-linecap="round" stroke-linejoin="bevel" stroke-width="6.15"/><path d="M189.57,100A89.57,89.57,0,1,1,100,10.43,89.57,89.57,0,0,1,189.57,100Z" fill="none" stroke="#c00" stroke-linecap="round" stroke-linejoin="bevel" stroke-width="6.87"/></g><g><path d="M89.29,53.26c-37,8.4-46,51.39-41.83,96.64l85.73.3c-3.84-14.15-5.57-22.38-15-38.7l28.76,6.67c6.38,3,19.67-2.2,13.83-16.38l-31.5-31.08L134.3,57a119.29,119.29,0,0,0-26.65-5.41" fill="none" stroke="#c00" stroke-width="3.69"/><path d="M126.64,90.41a3.37,3.37,0,1,1,4.32-2A3.36,3.36,0,0,1,126.64,90.41Z" fill="#a00" stroke="#c00" stroke-width="5.52"/><path d="M107.34,71.92l2.91-38.43C97,38.74,86,54.61,84.07,70.2" fill="none" stroke="#c00" stroke-linecap="round" stroke-linejoin="round" stroke-width="3.69"/></g></g></svg>