<svg id="piece" xmlns="http://www.w3.org/2000/svg"><g transform="translate(-100 -100)"><g><path d="M200,100A100,100,0,1,1,100,0,100,100,0,0,1,200,100Z" fill="#fedaa4" stroke="#000" stroke-linecap="round" stroke-linejoin="bevel" stroke-width="6.15"/><path d="M189.57,100A89.57,89.57,0,1,1,100,10.43,89.57,89.57,0,0,1,189.57,100Z" fill="none" stroke="#c00" stroke-linecap="round" stroke-linejoin="bevel" stroke-width="6.87"/></g><g><rect x="72.46" y="77.62" width="55.09" height="46.18" stroke-width="6" stroke="#c00" stroke-linecap="round" stroke-linejoin="round" fill="none"/><g><rect x="60.51" y="128.33" width="78.99" height="8.91" stroke-width="6" stroke="#c00" stroke-linecap="round" stroke-linejoin="round" fill="none"/><g><rect x="52.41" y="141.78" width="95.19" height="10.94" stroke-width="6" stroke="#c00" stroke-linecap="round" stroke-linejoin="round" fill="none"/></g></g><path d="M140.9,47.28H123.32v11.2h-14.6V47.28H91.28v11.2H76.68V47.28H59.1l.14,25.8h81.52V62.88Z" fill="none" stroke="#c00" stroke-linecap="round" stroke-linejoin="round" stroke-width="6"/></g></g></svg>