<svg id="piece" xmlns="http://www.w3.org/2000/svg">
    <g transform="translate(-100 -100)">
        <path fill="#FEDAA4" stroke="#000000" stroke-width="6.15px" stroke-linecap="round" stroke-linejoin="bevel" d="M200,100A100,100,0,1,1,100,0,100,100,0,0,1,200,100Z"/>
        <path fill="none" stroke-width="6.87px" stroke="#000000" stroke-linecap="round" stroke-linejoin="bevel" d="M189.57,100A89.57,89.57,0,1,1,100,10.43,89.57,89.57,0,0,1,189.57,100Z"/>
        <path stroke="#000000" fill="#000000" stroke-width="3.08px"
              d="M105.77,85.63h14.42v23.55H105.77Zm11.54-37.5-9.62-5.29a167.87,167.87,0,0,1-7,23.55A196.65,196.65,0,0,1,88.94,92.84l1.44,1.44A122.45,122.45,0,0,0,100,80.82v61.54q0,8.64,11.06,8.65H139.9a37.54,37.54,0,0,0,9.38-1q3.6-1,6.49-6.25a8.1,8.1,0,0,1-5.53-6,52.65,52.65,0,0,1-1.2-12.74h-1.92a77.06,77.06,0,0,1-1.21,14.42q-1.2,6.25-6,6.25H113.46q-8.17,0-8.17-6.25V111.59h14.9v4.32l6.25-2.88q-.48-7.22-.48-25.48l3.85-2.89L124,78.89l-4.33,4.33H105.29L101,79.38,108.17,65h32.7v50c0,1.93-.41,3.21-1.21,3.85s-6.65.32-17.54-1v1.92q7.2,1.92,9.85,3.85a12.19,12.19,0,0,1,4.09,6.25q7.22-2.42,9.13-5.53a15,15,0,0,0,1.93-7.94V67.84L151.44,65l-6.73-6.73-4.33,4.33H109.13q5.78-12.51,8.18-14.42ZM63.46,86.59H79.81v41.34H63.46Zm-6.25,60.57,6.25-2.88V130.34H79.81V139l6.25-3.85q-.48-10.09-.48-46.63l4.32-2.4-6.25-6.25-4.32,4.32H63.46q3.85-12.5,7.21-28.84h22.6l-7.69-7.7-5.29,5.29H44.23l3.85,3.85a30.29,30.29,0,0,1,9.61-1.44h6.25a227.18,227.18,0,0,1-8.17,33.41,136.67,136.67,0,0,1-13.46,28.13l1,1q6.25-5.78,14.42-19.23,0,40.38-.48,48.55Z"/>
    </g>
</svg>