<svg id="piece" xmlns="http://www.w3.org/2000/svg" viewBox="0 0 200 200">
    <g transform="translate(-100 -100)">
        <path fill="#FEDAA4" stroke="#000000" stroke-width="6.15px" stroke-linecap="round" stroke-linejoin="bevel" d="M200,100A100,100,0,1,1,100,0,100,100,0,0,1,200,100Z"/>
        <path fill="none" stroke-width="6.87px" stroke="#000000" stroke-linecap="round" stroke-linejoin="bevel" d="M189.57,100A89.57,89.57,0,1,1,100,10.43,89.57,89.57,0,0,1,189.57,100Z"/>
        <path stroke="#000000" fill="#000000" stroke-width="3.08px"
              d="M67.79,78.37h27.4V94.23H67.79Zm33.65,0h28.37V94.23H101.44ZM67.79,96.63h27.4v14.43H67.79Zm33.65,0h28.37v14.43H101.44Zm-39.9-.24q0,16.59-.48,25.24l6.73-3.36v-4.81h27.4v15.87H42.79l3.84,3.84a30.36,30.36,0,0,1,9.62-1.44H95.19q0,17.31-.48,25l7.21-2.4q-.48-12-.48-22.6h55.77l-10.09-9.61-7.7,7.21h-38V113.46h28.37v6.25l6.73-2.88q-.48-8.17-.48-36.06l4.81-2.89-7.22-7.21L128.37,76H101.44V63.46h49l-8.65-8.65-6.73,6.25H101.44V51.44l5.77-4.32-12.5-3.85q.48,9.13.48,17.79H49l3.84,3.84a30.36,30.36,0,0,1,9.62-1.44H95.19V76H68.75l-7.69-4.33q.48,8.18.48,24.76Z"/>
    </g>
</svg>