<svg id="piece" xmlns="http://www.w3.org/2000/svg">
    <g transform="translate(-100 -100)">
        <path fill="#FEDAA4" stroke="#000000" stroke-width="6.15px" stroke-linecap="round" stroke-linejoin="bevel" d="M200,100A100,100,0,1,1,100,0,100,100,0,0,1,200,100Z"/>
        <path fill="none" stroke-width="6.87px" stroke="#000000" stroke-linecap="round" stroke-linejoin="bevel" d="M189.57,100A89.57,89.57,0,1,1,100,10.43,89.57,89.57,0,0,1,189.57,100Z"/>
        <path stroke="#000000" fill="#000000" stroke-width="3.08px"
              d="M77.88,80.05H61.54V59.86l2.88-3.37-9.61-3.85q.48,6.74.48,26.45l-2.89,2.4,6.25,5.29,2.89-4.33H77.88v20.19H49.52l3.85,3.85a25.85,25.85,0,0,1,8.17-1.44q.48,16.83-1.92,26.2t-12.5,21.39l1,1.45Q62,143,65.14,133.17t3.13-28.12h9.61q0,41.34-.48,50l7.22-3.37c-.33-5.45-.49-9.21-.49-11.3V52.64l4.33-3.84L77.4,44q.48,8.65.48,36.06Zm45.2-27.41,3.84-1.92L117.79,44a84,84,0,0,1-13.7,23.08A98.17,98.17,0,0,1,87.5,82.45l1,1.44A89.16,89.16,0,0,0,103.37,74,142,142,0,0,0,116.83,61.3h27.4a106.23,106.23,0,0,1-23.08,26.44q-13.94,11.54-35.57,17.79l.48,1.44q20.67-3.36,35.33-13.46T143.51,74Q151,64.67,156.25,63.7l-7.69-9.13-4.81,4.32H118.27q2.4-2.88,4.81-6.25Zm11.54,55.29H86.54l3.84,3.85a30.36,30.36,0,0,1,9.62-1.44h34.62v29.32c0,2.57-1.37,3.93-4.09,4.09s-8.9-.4-18.51-1.68v2.4q16.83,3.85,17.31,11.54,12-3.36,11.54-14.42V110.34h19.71l-7.7-8.18-5.76,5.77h-6.25V97.84l3.84-3.37-10.58-4.81q.5,6.25.49,18.27ZM100,115.14l-1.44,1q5.28,9.61,6.49,16.82t4.33,4.33a9.42,9.42,0,0,0,3.36-6.25,9.71,9.71,0,0,0-2.4-6.73q-2.66-3.36-10.34-9.14Zm12-48.55-1.44,1q6.72,6.74,8.65,11.54t4.09,2.64a7.48,7.48,0,0,0,2.16-5.53,5.5,5.5,0,0,0-2.88-5A79.55,79.55,0,0,0,112,66.59ZM101,75.72l-1.44,1q5.28,5.77,7,10.82t3.85,2.88a7.88,7.88,0,0,0,2.4-5q.24-2.9-2.64-5A39.77,39.77,0,0,0,101,75.72Z"/>
    </g>
</svg>