<svg id="piece" xmlns="http://www.w3.org/2000/svg">
    <g transform="translate(-100 -100)">
        <path fill="#FEDAA4" stroke="#000000" stroke-width="6.15px" stroke-linecap="round" stroke-linejoin="bevel" d="M200,100A100,100,0,1,1,100,0,100,100,0,0,1,200,100Z"/>
        <path fill="none" stroke-width="6.87px" stroke="#000000" stroke-linecap="round" stroke-linejoin="bevel" d="M189.57,100A89.57,89.57,0,1,1,100,10.43,89.57,89.57,0,0,1,189.57,100Z"/>
        <path stroke="#000000" fill="#000000" stroke-width="3.08px"
              d="M119.42,108.46a37.31,37.31,0,0,0,9.38,18.75q7.45,8.17,20.43,13.46,1.44-4.8,10.1-5.77v-1.44A56.44,56.44,0,0,1,136,125.77a34.1,34.1,0,0,1-14.66-18.27q17.29-7.69,22.59-7.69l-6.73-8.18q-2.4,2.9-9.61,7.94a104.14,104.14,0,0,1-15.39,8.89q-6.25-6.73-17.79-12a53,53,0,0,0,7.21-9.61h31.74v3.36l6.73-2.4q-.48-6.74-.48-14.42L143.94,70l-7.69-6.25-4.33,4.81h-25q9.14-8.18,14-10.58A27.87,27.87,0,0,1,129,55.1l-8.66-8.18-5.28,5.77H86.73q4.81-4.8,8.65-5.29l-9.61-6.73Q82.89,47.4,72.07,58A129.89,129.89,0,0,1,46.35,77.21l.48,1.92A74.07,74.07,0,0,0,66.54,70q0,13-.48,23.56l6.73-2.41V86.83H93.94q-10.57,17.79-43.27,29.8l.48,1.45A103.06,103.06,0,0,0,93,98.37a18.33,18.33,0,0,1,4.81,3.36q-12.5,15.39-41.35,26.44l.48,1.45q26.92-6.25,45.2-23.56a22,22,0,0,1,4.32,4.81Q88.17,133.94,47.31,145v1.92q38.46-6.24,62.5-30.29a32.21,32.21,0,0,1,1.92,11.06,20.87,20.87,0,0,1-2.16,9.86,11.92,11.92,0,0,1-5.29,5.53q-3.12,1.44-19.47-.48v1.92q13.45,3.36,14.42,9.61,9.61-2.4,14.42-8.17a26.18,26.18,0,0,0,5.77-14.18q1-8.41-5.77-20.91,1.93-1,5.77-2.41Zm-15.86-39.9H73.75l-2.4-2.41q6.24-5.28,13-11.05h29.8ZM72.79,71H99.71a50.67,50.67,0,0,1-4.33,13.46H72.79Zm34.13,0h26.45V84.42H102.6A72.79,72.79,0,0,0,106.92,71Z"/>
    </g>
</svg>