<svg id="piece" xmlns="http://www.w3.org/2000/svg" viewBox="0 0 200 200">
    <g transform="translate(-100 -100)">
        <path fill="#FEDAA4" stroke="#000000" stroke-width="6.15px" stroke-linecap="round" stroke-linejoin="bevel" d="M200,100A100,100,0,1,1,100,0,100,100,0,0,1,200,100Z"/>
        <path fill="none" stroke-width="6.87px" stroke="#000000" stroke-linecap="round" stroke-linejoin="bevel" d="M189.57,100A89.57,89.57,0,1,1,100,10.43,89.57,89.57,0,0,1,189.57,100Z"/>
        <path stroke="#000000" fill="#000000" stroke-width="3.08px"
              d="M60.34,116.25l7.21-2.4v-5.29l75.48-1a171,171,0,0,1-1.2,22.59q-1.2,8.66-3.61,12.26t-8.65,2.89q-6.25-.72-14.43-2.17l-.48,2.41Q131,148.94,132,155.67q8.66-2.4,12-7.69a34.46,34.46,0,0,0,4.57-13.7A234.85,234.85,0,0,0,150.24,110l5.29-3.37-9.14-7.69-4.32,6.25-35.1.48V89.81h37l-8.17-8.18-5.77,5.77H107V71.54h37l-7.69-7.69L131,69.13H107V52.79h42.31l-8.65-8.66-6.25,6.25H69l-8.65-4.32Q60.82,61,60.82,79t-.48,37.26Zm-1.45,2.88Q55.53,131.64,50,136t-3.61,7.45q1.94,3.14,6.49,1.45t6.74-7.46q2.16-5.76,1.68-18.27Zm13,.49q5.28,11.05,5.52,17.06c.16,4,1.37,5.61,3.61,4.81a6,6,0,0,0,4.09-4.81c.48-2.4-.08-5.05-1.69-7.93s-5-6.41-10.09-10.58Zm44.23-3.85q6.72,7.7,8.17,13.7t4.09,5.29a5.75,5.75,0,0,0,3.84-3.85q1.2-3.12-1.44-7.21t-13.22-9.37Zm-48.56-63h32.69V69.13H67.55Zm0,18.75h32.69V87.4H67.55Zm0,18.27h32.69v15.86l-32.69.48Zm26,27.4a33,33,0,0,1,6.73,13.94q1.44,7.22,4.57,6.25a5.27,5.27,0,0,0,3.84-4.08q.72-3.13-1.68-7.21T95,115.77Z"/>
    </g>
</svg>