<svg id="piece" xmlns="http://www.w3.org/2000/svg" viewBox="0 0 200 200">
    <g transform="translate(-100 -100)">
        <path fill="#FEDAA4" stroke="#000000" stroke-width="6.15px" stroke-linecap="round" stroke-linejoin="bevel" d="M200,100A100,100,0,1,1,100,0,100,100,0,0,1,200,100Z"/>
        <path fill="none" stroke-width="6.87px" stroke="#000000" stroke-linecap="round" stroke-linejoin="bevel" d="M189.57,100A89.57,89.57,0,1,1,100,10.43,89.57,89.57,0,0,1,189.57,100Z"/>
        <path stroke="#000000" fill="#000000" stroke-width="3.08px"
              d="M76.44,61.11Q75,68.79,69,81.54a88.11,88.11,0,0,1-16.11,23.32l1.45,1q11.54-7.69,22.59-26.44Q84.62,87.54,86.78,94t5,1.44q2.88-5,0-8.41t-14-9.62c1.61-2.88,2.89-5,3.85-6.49a13.9,13.9,0,0,1,4.81-4.08Zm49,6.25-9.61-6.25A94.84,94.84,0,0,1,107,81.78q-6,10.57-17.55,22.59l1.45,1A69.87,69.87,0,0,0,96.63,101v11.54H44.71l3.85,3.84A30.29,30.29,0,0,1,58.17,115H96.63v26q0,2.9-.48,13l7.7-2.88q-.48-9.13-.48-12V115h51.92l-8.66-9.61-7.21,7.21h-36v-4.81l4.32-3.37L97.6,100.05a155.49,155.49,0,0,0,17.3-19.23A76.17,76.17,0,0,1,125,91.88a54.33,54.33,0,0,1,5.77,9.61c1.28,2.89,3,2.56,5-1s1.36-6.89-2.17-10.1-9.45-7.05-17.78-11.54Q117.79,76,120,72.64a15.86,15.86,0,0,1,5.53-5.28ZM92.79,40.91l-1.44,1.45Q97.11,50,97.6,57.26H50l3.85,3.85a30,30,0,0,1,9.61-1.45h82.69L137,50.05l-7.21,7.21H101q4.33-3.84,2.89-7.69T92.79,40.91Z"/>
    </g>
</svg>