<svg id="piece" xmlns="http://www.w3.org/2000/svg" viewBox="0 0 200 200">
    <g transform="translate(-100 -100)">
        <path fill="#FEDAA4" stroke="#000000" stroke-width="6.15px" stroke-linecap="round" stroke-linejoin="bevel" d="M200,100A100,100,0,1,1,100,0,100,100,0,0,1,200,100Z"/>
        <path fill="none" stroke-width="6.87px" stroke="#CC0000" stroke-linecap="round" stroke-linejoin="bevel"
              d="M189.57,100A89.57,89.57,0,1,1,100,10.43,89.57,89.57,0,0,1,189.57,100Z"/>
        <path stroke="#CC0000" fill="#CC0000" stroke-width="3.08px"
              d="M87.55,81h20.19V95.43H87.55ZM114,81h21.64V95.43H114ZM87.55,97.84h20.19v14.9H87.55Zm26.44,0h21.64v14.9H114ZM106.78,157l7.69-3.36c-.32-7.06-.48-12.34-.48-15.87v-5.29h38l-8.65-9.13-6.25,6.73H114V115.14h21.64v4.33l6.73-3.36c-.32-4.49-.49-8.66-.48-12.5V82.93l3.84-3.36L138,73.8l-3.37,4.81H114V65.14h34.14l-8.66-8.65-6.25,6.25H114V52.16l4.33-3.84-11.06-4.81c.32,3.53.48,7.21.48,11.06v8.17H76l3.85,3.85a30.29,30.29,0,0,1,9.61-1.45h18.27V78.61H88l-7.21-3.37q.48,10.1.48,22.36t-.48,24.28l6.73-3.37v-3.37h20.19v14.91h-37l3.85,3.84a30.29,30.29,0,0,1,9.61-1.44h23.56v7.69q0,4.34-1,16.83Zm-39.9-74,3.84-2.4L65,77.16Q68.8,69,76,54.57L81.3,51.2,70.72,44.47a238.59,238.59,0,0,1-11.54,31,168.66,168.66,0,0,1-17.3,30.05L43.32,107A166.36,166.36,0,0,0,60.63,84.86v51q0,10.58-.49,20.67l7.22-3.85q-.48-8.64-.48-20.19Z"/>
    </g>
</svg>