<svg id="piece" xmlns="http://www.w3.org/2000/svg" viewBox="0 0 200 200">
    <g transform="translate(-100 -100)">
        <path fill="#FEDAA4" stroke="#000000" stroke-width="6.15px" stroke-linecap="round" stroke-linejoin="bevel" d="M200,100A100,100,0,1,1,100,0,100,100,0,0,1,200,100Z"/>
        <path fill="none" stroke-width="6.87px" stroke="#CC0000" stroke-linecap="round" stroke-linejoin="bevel" d="M189.57,100A89.57,89.57,0,1,1,100,10.43,89.57,89.57,0,0,1,189.57,100Z"/>
        <path stroke="#CC0000" fill="#CC0000" stroke-width="3.08px"
              d="M70,109.18H44L47.84,113a30.29,30.29,0,0,1,9.61-1.44H156l-8.65-8.66-6.25,6.25H119V79.38h28.37l-8.66-8.66L132.45,77H76.68V55.82q13.95-1,31.73-2.65t26-2.16l-7.21-9.13a80.42,80.42,0,0,1-20.43,7q-12.26,2.64-29.57,4.56l-7.69-4.8Q70,63.51,70,76.49Zm13.46,7.69q-3.84,5.3-12.74,12.75T44,147.64l.48,1.93A286.72,286.72,0,0,0,86.3,126.49l5.77-.48Zm26.93,0-1,1.93A152.26,152.26,0,0,1,126,131.3a96.89,96.89,0,0,1,12.26,13.22q5.78,7.46,8.17-2.16t-36-25.49ZM76.68,79.38h35.58v29.8H76.68Z"/>
    </g>
</svg>