<svg id="piece" xmlns="http://www.w3.org/2000/svg" viewBox="0 0 200 200">
    <g transform="translate(-100 -100)">
        <path fill="#FEDAA4" stroke="#000000" stroke-width="6.15px" stroke-linecap="round" stroke-linejoin="bevel" d="M200,100A100,100,0,1,1,100,0,100,100,0,0,1,200,100Z"/>
        <path fill="none" stroke-width="6.87px" stroke="#CC0000" stroke-linecap="round" stroke-linejoin="bevel" d="M189.57,100A89.57,89.57,0,1,1,100,10.43,89.57,89.57,0,0,1,189.57,100Z"/>
        <path stroke="#CC0000" fill="#CC0000" stroke-width="3.08px"
              d="M83.46,65.63v35.09q0,5.77-.48,15.39l6.73-1.45v-2.4l51.92-1q-3.84,27.88-5.52,31.73t-5.05,3.6q-3.37-.24-16.35-3.12v1.92q7.7,2.9,10.1,4.81a13.09,13.09,0,0,1,3.84,6.25q8.17-1.92,11.78-7.21t7.45-35.58l4.33-2.88-7.69-6.73-4.33,4.8-23.56.49V92.55h27.89l-8.65-8.17-5.77,5.76H116.63V73.8H145l-8.17-8.17-5.77,5.76H116.63V55.53h31.25l-8.65-9.14-6.73,6.74H90.19L83,49.28q.48,10.09.48,16.35Zm-3.84,56.73q-4.82,12-8.9,15.62c-2.72,2.4-3.52,4.17-2.4,5.29s3,1.44,5.53,1,4.4-2.32,5.53-5.53,1.84-8.49,2.16-15.86Zm10.09.48q3.38,12,3.37,17.54t3.36,3.85a6.88,6.88,0,0,0,3.85-5.77q.48-4.08-8.66-16.58Zm13.94-1.93q5.77,11.55,6.49,16.83t4.09,2.64c2.24-1.76,3-4.24,2.4-7.45s-4.64-7.53-12-13ZM120,118q5.77,11.06,7,16.59t4.33,1.92q3.12-3.61,1.44-7.45t-11.3-12ZM89.71,55.53h20.67V71.39H89.71Zm0,18.27h20.67V90.14H89.71Zm0,18.75h20.67v16.83l-20.67.48ZM64.23,136.3V82l3.85-1.92L62.79,76.2Q71,58.89,73.85,53.13l4.8-2.89L68.08,43.51A254.15,254.15,0,0,1,57.5,73.56a168.16,168.16,0,0,1-15.87,29.57l1.45,1A142.86,142.86,0,0,0,58,84.86v45.67q0,10.58-.48,25l7.21-3.85q-.48-7.69-.48-15.38Z"/>
    </g>
</svg>