<svg id="piece" xmlns="http://www.w3.org/2000/svg">
    <g transform="translate(-100 -100)">
        <path fill="#FEDAA4" stroke="#000000" stroke-width="6.15px" stroke-linecap="round" stroke-linejoin="bevel" d="M200,100A100,100,0,1,1,100,0,100,100,0,0,1,200,100Z"/>
        <path fill="none" stroke-width="6.87px" stroke="#CC0000" stroke-linecap="round" stroke-linejoin="bevel" d="M189.57,100A89.57,89.57,0,1,1,100,10.43,89.57,89.57,0,0,1,189.57,100Z"/>
        <path stroke="#CC0000" fill="#CC0000" stroke-width="3.08px"
              d="M114.42,115v1.93q15.87,3.36,15.39,10.57a20.23,20.23,0,0,0,8.89-5q4.58-4.08,5.05-14.18t1-43.27l3.85-3.36-8.66-6.73-3.36,5.28H104.33q3.36-9.62,4.8-12l3.37-2.41-11.06-5.29q-1,8.66-5.77,23.8a158.23,158.23,0,0,1-13.94,31l1.44,1A83.56,83.56,0,0,0,94.23,81.78v57.69q0,9.61,10.1,9.62h38.46q10.1,0,13.46-7.21a7.22,7.22,0,0,1-4.81-4.57q-1.44-3.62-1-13.7h-2.4q-.48,7.2-1.45,13.46c-.64,4.16-2.24,6.25-4.8,6.25H106.25c-3.53,0-5.45-1.93-5.77-5.77V108.7h18.27v3.37l6.73-2.89V85.63l4.33-2.89-8.18-7.21-4.32,5.29H101l-4.81-2.89a161,161,0,0,0,7.22-15.38H137.5q0,43.74-1.2,48.32c-.8,3-2.49,4.64-5.05,4.8a162.68,162.68,0,0,1-16.83-.72ZM100.48,83.22h18.27V106.3H100.48ZM64.42,41.39q.48,27.4.48,47.84t-4.08,34.38Q56.73,137.55,44.23,152l1,1.44q20.19-16.33,25-39.42,8.66,8.66,11.3,14.66c1.76,4,3.21,6.17,4.33,6.49s2.08-1.2,2.88-4.56-.16-6.49-2.88-9.38-7.78-6.09-15.15-9.61q1-15.87,1-26.45,6.74-6.24,10.82-10.33t7.45-5l-6.73-8.17Q80.29,69.77,71.63,81.3V50.05l3.85-3.85ZM54.81,73.13H52.88Q51,84.19,47.36,89.23t-1.45,6.49q2.18,1.44,5.53.24t4.33-6q1-4.8-1-16.82Z"/>
    </g>
</svg>