<svg id="piece" xmlns="http://www.w3.org/2000/svg">
    <g transform="translate(-100 -100)">
        <path fill="#FEDAA4" stroke="#000000" stroke-width="6.15px" stroke-linecap="round" stroke-linejoin="bevel" d="M200,100A100,100,0,1,1,100,0,100,100,0,0,1,200,100Z"/>
        <path fill="none" stroke-width="6.87px" stroke="#CC0000" stroke-linecap="round" stroke-linejoin="bevel" d="M189.57,100A89.57,89.57,0,1,1,100,10.43,89.57,89.57,0,0,1,189.57,100Z"/>
        <path stroke="#CC0000" fill="#CC0000" stroke-width="3.08px"
              d="M72.84,135.58V84.13l3.36-3.36L69,77.4q4.82-9.62,8.89-17.54T85.82,50L74.76,43.27A174.52,174.52,0,0,1,62.5,78.85,232,232,0,0,1,44,110.1l1.44,1.44q9.62-10.1,20.2-26.92v51.44q0,8.17-.49,20.67l8.18-3.36q-.48-9.62-.48-17.79ZM111.3,67.31V84.62H77.64l3.85,3.84A30.31,30.31,0,0,1,91.11,87H111.3v55.29H82.45l3.85,3.84a30.29,30.29,0,0,1,9.61-1.44h54.33l-8.17-8.65-6.25,6.25H118.51V87H156l-8.65-9.62-7.7,7.22H118.51V53.37l3.37-2.89-11.06-5.29q.48,12.51.48,22.12Z"/>
    </g>
</svg>