<svg id="piece" xmlns="http://www.w3.org/2000/svg">
    <g transform="translate(-100 -100)">
        <path fill="#FEDAA4" stroke="#000000" stroke-width="6.15px" stroke-linecap="round" stroke-linejoin="bevel" d="M200,100A100,100,0,1,1,100,0,100,100,0,0,1,200,100Z"/>
        <path fill="none" stroke-width="6.87px" stroke="#CC0000" stroke-linecap="round" stroke-linejoin="bevel" d="M189.57,100A89.57,89.57,0,1,1,100,10.43,89.57,89.57,0,0,1,189.57,100Z"/>
        <path stroke="#CC0000" fill="#CC0000" stroke-width="3.08px"
              d="M109.57,110.48h30.77v27.4H109.57Zm-6.73,41.83,6.73-2.89v-9.13h30.77v11.06l7.21-3.37q-.48-11.53-.48-88l4.32-3.37-6.73-6.73-5.29,5.29H110.05l-7.21-4.81q.48,11.07.48,50t-.48,51.93Zm6.73-94.71h30.77V82.12H109.57Zm0,26.92h30.77v23.56H109.57ZM70.14,73.46h-24L50,77.31a30.36,30.36,0,0,1,9.62-1.44h9.61q-4.8,24-26,53.36l1.44,1.44A116.07,116.07,0,0,0,70.14,95.58q0,27.4-.48,57.21l7.22-3.37q-.5-12-.49-60.09a22.54,22.54,0,0,1,9.38,12.26q2.64,7.93,5.77,2.4t-1-9.13q-4.1-3.61-14.19-7.46V75.87h24.52l-8.17-7.7L87,73.46H76.39V49.9l4.33-3.36L69.66,42.21q.48,12,.48,31.25Z"/>
    </g>
</svg>