<svg id="piece" xmlns="http://www.w3.org/2000/svg" viewBox="0 0 200 200">
    <g transform="translate(-100 -100)">
        <path fill="#FEDAA4" stroke="#000000" stroke-width="6.15px" stroke-linecap="round" stroke-linejoin="bevel" d="M200,100A100,100,0,1,1,100,0,100,100,0,0,1,200,100Z"/>
        <path fill="none" stroke-width="6.87px" stroke="#CC0000" stroke-linecap="round" stroke-linejoin="bevel"
              d="M189.57,100A89.57,89.57,0,1,1,100,10.43,89.57,89.57,0,0,1,189.57,100Z"/>
        <path stroke="#CC0000" fill="#CC0000" stroke-width="3.08px"
              d="M127.6,73.56h18.27v49q-.5,4.32-4.81,4.08a65.25,65.25,0,0,1-9.14-1.2v1.92q10.1,3.38,11.54,9.62,9.14-4.82,8.66-13.46V75.48L156,72.6l-7.21-6.25-4.33,4.8H127.6V51.92l4.32-3.84-11-4.81q.48,7.69.48,27.88H104.52l-7.21-3.84q.48,11.06.48,32t-.48,35.82l6.73-3.85V73.56h17.31v60.09q0,9.61-.48,23.08l7.21-3.36q-.48-8.66-.48-16.83ZM56.92,67.79H81V89.9h-24Zm0,43.27h26v27.4h-26ZM50.19,151l6.73-2.88v-7.21h26v7.21l6.74-2.89q-.5-5.76-.49-32.21l2.89-2.4-5.77-6.25-4.33,4.32h-25V92.31H81v5.77l6.73-3.37q-.48-6.73-.48-25l3.37-2.4-6.25-6.25L80,65.38H65.1l7.69-12.5,4.33-3.36L67,43.75q0,8.18-5.29,21.63H56.92L50.19,62q.48,9.62.48,42.31T50.19,151Z"/>
    </g>
</svg>